<?xml version="1.0" standalone="no"?>
<!DOCTYPE svg PUBLIC "-//W3C//DTD SVG 20010904//EN"
 "http://www.w3.org/TR/2001/REC-SVG-20010904/DTD/svg10.dtd">
<svg version="1.0" xmlns="http://www.w3.org/2000/svg"
 width="899.000000pt" height="899.000000pt" viewBox="0 0 899.000000 899.000000"
 preserveAspectRatio="xMidYMid meet">
<metadata>
Created by potrace 1.14, written by Peter Selinger 2001-2017
</metadata>
<g transform="translate(0.000000,899.000000) scale(0.100000,-0.100000)"
fill="#000000" stroke="none">
<path d="M2832 8970 c0 -14 2 -19 5 -12 2 6 2 18 0 25 -3 6 -5 1 -5 -13z"/>
<path d="M811 8924 c0 -11 3 -14 6 -6 3 7 2 16 -1 19 -3 4 -6 -2 -5 -13z"/>
<path d="M465 8761 c-3 -5 -1 -12 5 -16 5 -3 10 1 10 9 0 18 -6 21 -15 7z"/>
<path d="M891 8674 c0 -11 3 -14 6 -6 3 7 2 16 -1 19 -3 4 -6 -2 -5 -13z"/>
<path d="M4800 8500 c0 -5 5 -10 11 -10 5 0 7 5 4 10 -3 6 -8 10 -11 10 -2 0
-4 -4 -4 -10z"/>
<path d="M4868 8478 c5 -5 16 -8 23 -6 8 3 3 7 -10 11 -17 4 -21 3 -13 -5z"/>
<path d="M405 8460 c3 -5 8 -10 11 -10 2 0 4 5 4 10 0 6 -5 10 -11 10 -5 0 -7
-4 -4 -10z"/>
<path d="M4384 8411 c-2 -2 -4 -19 -4 -38 0 -29 3 -33 28 -33 15 0 45 5 67 10
22 5 76 12 119 16 71 6 79 5 73 -10 -5 -12 0 -16 21 -15 23 0 24 2 8 8 -19 7
-18 8 5 15 20 7 21 9 7 13 -10 2 -18 13 -18 24 0 10 -5 19 -11 19 -6 0 -9 -6
-6 -14 7 -19 -6 -23 -78 -24 l-60 0 58 10 c31 6 57 14 57 19 0 8 -257 8 -266
0z"/>
<path d="M4110 8390 c0 -6 -6 -10 -14 -10 -8 0 -16 -6 -19 -12 -3 -10 -7 -10
-19 0 -12 10 -17 10 -20 1 -2 -7 -30 -14 -61 -17 -32 -2 -54 -9 -51 -14 4 -5
17 -7 31 -3 16 4 22 2 18 -5 -3 -5 -1 -10 4 -10 6 0 11 4 11 8 0 4 16 6 36 4
23 -3 39 1 47 11 7 8 24 17 40 21 30 7 35 21 12 30 -8 3 -15 1 -15 -4z"/>
<path d="M4734 8354 c-10 -8 -13 -12 -5 -8 8 4 28 11 45 15 29 6 29 7 5 8 -14
1 -34 -6 -45 -15z"/>
<path d="M4320 8346 c0 -8 4 -17 9 -20 10 -7 23 19 14 28 -11 11 -23 6 -23 -8z"/>
<path d="M4143 8319 c6 -9 18 -14 29 -11 27 7 22 19 -11 24 -25 4 -27 2 -18
-13z"/>
<path d="M4411 8323 c-39 -8 -70 -52 -71 -101 l0 -42 50 25 c28 14 50 32 50
40 0 8 8 15 17 15 25 0 133 43 133 54 0 4 -8 5 -17 1 -10 -3 -30 -9 -45 -12
-16 -3 -28 -9 -28 -13 0 -4 -18 -12 -40 -19 -22 -6 -40 -16 -40 -22 0 -6 -4
-8 -9 -5 -5 4 -11 0 -14 -6 -2 -7 -8 -10 -12 -6 -16 15 6 37 47 49 101 29 85
62 -21 42z"/>
<path d="M4650 8320 c-24 -8 -23 -8 8 -9 20 -1 31 3 27 9 -3 6 -7 10 -8 9 -1
-1 -13 -5 -27 -9z"/>
<path d="M3783 8310 c-13 -5 -23 -14 -23 -20 0 -5 10 -10 23 -11 22 0 22 0 -2
-10 -16 -6 -27 -6 -30 0 -4 6 -12 6 -19 2 -9 -6 -7 -12 8 -26 31 -28 24 -35
-21 -20 -54 19 -56 19 -33 -7 27 -33 46 -69 39 -76 -3 -3 -22 11 -43 31 -73
71 -71 70 -88 56 -14 -12 -14 -14 3 -20 15 -6 13 -8 -9 -8 -50 -2 -58 -10 -53
-55 l5 -41 -11 37 c-11 37 -11 37 -39 23 -16 -8 -36 -15 -44 -15 -18 0 -94
-37 -118 -58 -10 -8 -18 -21 -18 -29 0 -11 5 -10 24 3 14 8 40 18 58 20 l33 5
-30 -21 c-16 -12 -41 -26 -54 -31 -35 -14 -21 -21 53 -24 52 -3 66 0 66 11 0
17 93 20 135 4 14 -5 39 -11 55 -12 17 -1 30 -8 30 -15 0 -14 -67 -11 -110 5
-14 5 -40 7 -58 5 -28 -5 -31 -7 -20 -21 11 -13 11 -14 -2 -7 -13 7 -13 6 -2
-7 10 -13 10 -17 -3 -22 -9 -3 -24 -2 -33 3 -9 4 -21 7 -27 6 -5 -2 -23 -6
-38 -9 -29 -7 -28 -29 1 -24 21 3 56 -16 109 -58 38 -32 71 -45 59 -25 -8 13
21 34 35 25 9 -5 10 -2 6 9 -4 11 -1 17 8 17 9 0 24 6 35 12 15 10 22 10 31 1
10 -10 17 -3 31 28 10 23 23 39 30 37 7 -3 31 21 54 51 23 31 52 65 65 75 13
10 33 26 43 35 18 15 19 15 13 -1 -5 -15 -1 -18 22 -18 15 0 31 3 34 6 6 7
-54 59 -76 67 -8 2 -6 9 6 21 9 10 17 22 17 27 0 14 26 11 40 -6 7 -8 16 -15
20 -15 10 0 90 74 90 83 0 11 -48 8 -56 -4 -4 -7 -20 -8 -43 -4 -117 24 -152
26 -178 15z m67 -14 c6 -8 17 -13 25 -10 20 8 25 -9 9 -36 -10 -18 -13 -20
-14 -8 0 9 -12 23 -27 30 -14 7 -28 19 -31 26 -5 17 23 15 38 -2z m-10 -79 c0
-2 -11 -18 -25 -37 -27 -37 -35 -24 -9 15 13 21 34 34 34 22z m-390 -81 c0 -3
-4 -8 -10 -11 -5 -3 -10 -1 -10 4 0 6 5 11 10 11 6 0 10 -2 10 -4z m156 -15
c-10 -11 -15 -25 -11 -30 7 -13 35 -15 35 -3 0 5 13 18 30 30 25 19 29 20 23
5 -3 -10 -13 -26 -20 -35 -8 -9 -12 -21 -8 -27 3 -6 0 -8 -8 -5 -8 3 -18 1
-22 -5 -3 -6 -14 -11 -23 -10 -11 0 -12 3 -4 6 29 11 9 25 -32 22 -24 -2 -42
0 -39 4 3 5 -1 8 -8 6 -24 -3 -72 1 -68 6 3 2 29 6 59 9 32 4 65 14 80 25 32
26 38 26 16 2z m177 -28 c-62 -54 -91 -74 -96 -66 -6 10 103 99 121 99 8 1 -3
-14 -25 -33z m-8 -43 c-10 -11 -23 -20 -29 -20 -6 1 0 10 13 20 30 26 39 26
16 0z m-390 -10 c3 -5 -1 -10 -10 -10 -9 0 -13 5 -10 10 3 6 8 10 10 10 2 0 7
-4 10 -10z m285 -79 c0 -11 -4 -23 -10 -26 -6 -4 -10 5 -10 19 0 14 5 26 10
26 6 0 10 -9 10 -19z m-90 -63 c0 -6 -7 -7 -16 -4 -9 3 -25 6 -37 7 -21 0 -21
1 -2 8 23 9 55 3 55 -11z"/>
<path d="M4102 8293 c-12 -12 -11 -17 4 -34 10 -11 20 -16 23 -11 3 5 12 11
19 13 9 3 6 11 -10 26 -20 19 -25 19 -36 6z"/>
<path d="M4310 8282 c0 -28 2 -27 18 4 9 16 8 21 -4 21 -8 0 -14 -10 -14 -25z"/>
<path d="M4133 8236 c-29 -14 -29 -17 6 -50 l29 -28 12 22 c14 25 5 71 -13 69
-6 -1 -22 -6 -34 -13z"/>
<path d="M3980 8210 c0 -5 5 -10 10 -10 6 0 10 5 10 10 0 6 -4 10 -10 10 -5 0
-10 -4 -10 -10z"/>
<path d="M4037 8204 c6 -15 23 -19 23 -5 0 5 -7 11 -14 14 -10 4 -13 1 -9 -9z"/>
<path d="M3910 8200 c0 -5 11 -10 24 -10 14 0 28 -4 31 -10 3 -5 12 -10 18
-10 7 0 1 9 -13 20 -27 21 -60 26 -60 10z"/>
<path d="M4093 8190 c1 -16 9 -26 22 -28 18 -2 18 -1 4 10 -9 7 -19 20 -22 28
-4 9 -6 5 -4 -10z"/>
<path d="M4196 8157 c-8 -31 -7 -39 3 -33 12 8 21 45 11 51 -4 3 -10 -5 -14
-18z"/>
<path d="M5585 8170 c3 -5 11 -10 16 -10 6 0 7 5 4 10 -3 6 -11 10 -16 10 -6
0 -7 -4 -4 -10z"/>
<path d="M5524 8155 c22 -17 40 -20 32 -6 -3 5 -16 11 -28 14 -22 6 -22 5 -4
-8z"/>
<path d="M4217 8135 c-4 -8 -2 -17 3 -20 6 -4 10 3 10 14 0 25 -6 27 -13 6z"/>
<path d="M5605 8106 c60 -34 185 -162 185 -189 1 -6 8 -23 16 -37 8 -14 13
-17 10 -7 -12 38 19 10 32 -29 7 -21 20 -46 27 -54 20 -20 19 0 -2 30 l-17 25
22 -19 c12 -10 24 -27 27 -38 4 -10 33 -32 66 -48 32 -17 59 -35 59 -41 0 -5
-5 -7 -11 -3 -7 4 -10 1 -7 -7 3 -8 9 -14 14 -14 11 0 124 -83 124 -92 0 -3
-9 2 -20 12 -16 14 -20 15 -20 3 0 -8 14 -24 30 -36 17 -13 30 -18 30 -11 0
17 31 -12 53 -50 17 -29 17 -30 -3 -28 -14 1 -20 7 -17 17 4 17 -19 45 -27 32
-8 -13 6 -62 18 -62 16 0 39 -59 37 -95 -1 -16 -11 -37 -22 -47 -10 -9 -34
-43 -52 -75 -18 -32 -41 -70 -51 -86 -17 -25 -17 -27 -1 -21 15 6 16 4 5 -16
l-13 -24 -15 29 c-13 26 -13 32 3 62 14 25 15 36 6 47 -9 11 -8 14 6 12 9 0
19 7 21 17 2 9 -1 17 -7 17 -6 0 -11 -4 -11 -10 0 -5 -9 -10 -20 -10 -15 0
-20 -7 -20 -25 0 -18 -7 -28 -25 -35 -31 -12 -33 -22 -2 -17 12 2 16 2 10 0
-17 -6 -16 -18 3 -34 12 -10 14 -23 10 -53 -9 -51 -15 -60 -31 -46 -9 7 -12
24 -9 43 2 18 2 26 -2 20 -11 -24 -24 -13 -24 20 0 18 -5 38 -11 44 -7 7 -9
23 -5 39 5 20 10 24 19 15 19 -19 27 -12 17 14 -6 16 -6 25 0 25 6 0 10 12 10
26 0 23 -1 24 -16 9 -12 -12 -19 -13 -30 -4 -8 6 -14 18 -14 25 0 8 -5 14 -11
14 -11 0 -86 78 -102 106 -4 8 -12 14 -17 14 -17 0 -11 -22 16 -57 14 -19 24
-40 21 -46 -3 -7 4 -23 14 -36 13 -16 25 -21 41 -16 18 5 20 4 8 -4 -8 -6 -10
-11 -5 -11 6 0 2 -5 -7 -11 -27 -15 -22 -37 10 -41 23 -3 27 -7 25 -32 -3 -36
-7 -40 -28 -28 -16 8 -15 11 6 26 l24 17 -25 -3 c-17 -2 -27 4 -36 20 -6 12
-20 33 -31 45 -11 12 -18 29 -16 37 3 9 -1 6 -11 -5 -15 -20 -15 -19 -16 7 0
15 -4 30 -10 33 -13 8 -13 -7 1 -42 6 -15 13 -41 15 -57 2 -16 11 -37 19 -46
8 -9 15 -20 15 -24 0 -13 54 -66 67 -66 16 0 26 -35 18 -61 -5 -15 -1 -25 14
-36 12 -8 21 -20 20 -26 -4 -33 2 -56 14 -52 11 4 67 -75 67 -96 0 -5 11 -26
24 -47 14 -20 28 -50 31 -67 6 -29 6 -29 -11 5 -12 26 -18 30 -21 18 -2 -9 1
-26 6 -37 16 -30 12 -40 -4 -11 -8 14 -14 38 -15 53 0 15 -8 37 -19 48 -10 11
-21 34 -25 50 -3 16 -10 29 -16 29 -15 0 -12 -61 5 -80 13 -14 13 -19 0 -36
-14 -19 -14 -19 -15 2 0 12 -7 27 -15 34 -8 7 -15 23 -15 37 0 30 -12 53 -50
95 -35 38 -41 65 -11 48 11 -5 21 -15 24 -22 2 -7 7 -10 11 -7 3 3 -7 23 -24
45 -16 21 -29 46 -29 54 0 10 2 11 6 3 6 -15 33 -17 33 -3 0 6 -3 10 -8 10 -4
0 -13 14 -21 31 -8 18 -22 34 -32 36 -13 4 -19 14 -19 34 0 24 -19 54 -21 32
-8 -98 -8 -138 -1 -142 4 -3 13 -24 19 -45 11 -35 10 -43 -9 -68 -17 -24 -21
-49 -26 -156 -5 -117 -4 -126 11 -113 13 10 15 25 10 75 -3 33 -3 59 0 56 12
-11 24 -182 16 -223 -18 -82 -20 -88 -29 -82 -5 3 -17 -7 -27 -22 -10 -15 -20
-30 -23 -33 -15 -13 -40 -61 -40 -75 0 -9 -4 -13 -10 -10 -5 3 -12 -5 -15 -18
-4 -14 -22 -40 -42 -58 -19 -19 -39 -44 -44 -57 -7 -17 -14 -22 -28 -17 -11 3
-37 -1 -57 -10 l-38 -16 24 26 c13 14 29 25 35 25 7 0 19 8 28 18 18 20 22 33
10 31 -21 -3 -20 3 5 28 15 15 29 27 33 26 3 -1 11 8 19 20 12 20 12 21 -3 9
-14 -12 -15 -10 -13 11 1 13 12 41 24 61 16 28 20 42 12 55 -5 10 -6 21 -3 25
3 3 1 6 -5 6 -19 0 -14 17 10 40 12 11 19 23 15 26 -8 8 -46 -36 -47 -52 0 -6
-12 -11 -26 -11 l-25 0 24 26 c42 46 64 84 92 161 30 85 31 176 1 205 -9 9
-16 22 -15 28 0 9 2 8 6 0 2 -7 9 -13 14 -13 9 0 2 79 -8 90 -7 8 -23 -24 -23
-47 0 -13 -5 -23 -11 -23 -6 0 -8 9 -4 20 3 11 2 20 -2 20 -5 0 -20 -29 -32
-64 -12 -36 -29 -73 -36 -83 -8 -10 -15 -24 -15 -31 0 -8 -10 -28 -22 -45 -13
-18 -21 -32 -20 -32 13 0 -21 -55 -37 -60 -10 -3 -22 -12 -25 -20 -3 -8 -13
-15 -22 -15 -14 0 -14 3 -4 15 25 30 1 26 -27 -4 -46 -51 -53 -60 -52 -68 6
-27 -75 -153 -84 -131 -4 9 -16 1 -39 -24 -41 -46 -149 -130 -157 -122 -3 3 5
14 19 25 75 58 100 82 114 110 9 18 16 33 16 34 0 1 -15 -1 -32 -4 -29 -6 -33
-10 -30 -36 l3 -30 -26 30 c-31 37 -31 45 -2 43 22 -2 118 40 147 64 23 20 91
128 81 128 -6 0 -15 -8 -20 -17 -6 -10 -11 -13 -11 -7 0 6 18 34 39 61 22 27
51 75 65 107 29 66 30 70 15 60 -8 -5 -8 -1 0 14 23 43 10 43 -24 1 -20 -26
-35 -55 -35 -71 0 -15 -5 -30 -10 -33 -6 -4 -8 -10 -5 -15 3 -4 -2 -10 -10
-14 -8 -3 -15 -16 -15 -28 -1 -26 -22 -58 -39 -58 -15 0 -14 4 14 60 14 28 21
50 15 50 -6 0 -9 10 -7 23 2 12 2 17 0 11 -2 -7 -13 -14 -24 -17 -17 -5 -18
-3 -8 9 6 8 9 17 6 20 -6 7 -39 -40 -36 -52 4 -21 -3 -35 -41 -80 -23 -27 -54
-77 -70 -111 -16 -34 -34 -64 -40 -68 -12 -8 -13 5 -1 24 11 16 -26 51 -53 51
-18 0 -23 -10 -57 -118 -20 -65 -49 -114 -49 -83 0 9 26 82 56 155 6 16 4 18
-9 13 -23 -9 -21 10 2 22 13 7 21 27 26 66 6 52 25 78 25 35 0 -11 5 -20 10
-20 10 0 14 15 11 34 -1 6 9 33 23 60 14 28 28 76 31 106 l5 55 -17 -32 c-9
-18 -20 -33 -25 -33 -13 0 -9 29 8 55 10 16 14 42 13 82 -3 67 -9 85 -20 57
-4 -10 -5 6 -2 36 l6 55 -36 -30 c-19 -17 -39 -39 -43 -50 -11 -30 -72 -117
-102 -145 -15 -14 -33 -38 -40 -54 -10 -23 -15 -26 -27 -16 -8 7 -15 18 -15
25 0 7 -7 15 -15 19 -25 9 -17 20 37 46 61 29 88 53 88 78 0 10 5 23 11 29 6
6 10 16 8 22 -2 6 -20 -10 -39 -36 -35 -47 -60 -65 -60 -43 0 6 15 26 33 45
23 24 38 52 47 89 12 49 11 58 -4 81 -9 14 -24 29 -32 32 -7 3 -11 9 -8 14 7
12 -23 59 -37 59 -6 0 -20 11 -31 26 -30 38 -35 20 -6 -23 79 -121 90 -143 68
-143 -5 0 -10 6 -10 13 0 7 -16 31 -35 53 -19 21 -35 46 -36 54 0 11 -2 10 -8
-3 -4 -10 -10 -18 -14 -18 -4 1 -7 -1 -7 -4 0 -3 0 -21 0 -40 0 -22 7 -41 21
-54 27 -25 50 -158 29 -171 -19 -12 -40 -1 -40 22 0 11 -16 35 -35 52 -19 18
-35 42 -35 54 0 12 -4 22 -9 22 -6 0 -18 25 -28 56 -9 31 -19 50 -22 43 -2 -8
-9 -17 -15 -21 -12 -8 -15 -40 -4 -48 11 -9 19 -110 8 -110 -9 0 5 -35 20 -50
3 -3 14 -16 25 -29 23 -28 4 -20 -32 12 -30 26 -31 5 -3 -41 26 -43 25 -46 -6
-17 -35 32 -49 32 -28 0 14 -21 14 -25 1 -25 -16 0 -30 50 -21 75 9 23 -15 48
-33 34 -19 -16 -30 -2 -15 21 10 16 8 23 -10 40 -24 22 -38 10 -18 -15 24 -29
-1 -15 -35 20 -38 37 -44 51 -20 41 28 -10 15 13 -24 45 -30 23 -39 38 -39 59
1 25 -49 110 -73 125 -11 8 -9 -47 3 -55 4 -3 10 -35 12 -70 3 -36 9 -83 13
-105 8 -48 6 -64 -12 -81 -18 -19 -51 -18 -53 1 -8 71 0 104 18 75 7 -12 10
-9 10 12 0 14 -6 29 -12 31 -10 4 -10 8 1 15 9 7 10 12 2 16 -6 4 -12 19 -12
34 -1 24 -2 23 -10 -8 -4 -19 -11 -48 -15 -65 -4 -16 -13 -36 -21 -43 -7 -7
-13 -34 -13 -60 -1 -41 -2 -45 -14 -29 -20 25 -26 21 -26 -19 0 -19 -4 -33 -9
-30 -5 4 -11 0 -14 -6 -2 -7 -2 8 1 35 4 39 2 47 -12 47 -9 0 -16 5 -16 11 0
5 6 7 13 4 6 -4 2 2 -10 12 -12 10 -29 35 -38 56 -11 26 -22 37 -36 37 -11 0
-18 -4 -15 -9 7 -11 19 -130 24 -252 1 -20 13 -53 27 -74 26 -38 27 -52 2 -42
-26 10 -45 71 -61 188 -8 64 -22 133 -30 154 -9 21 -16 49 -16 64 0 14 -7 35
-15 45 -8 11 -15 29 -14 40 1 18 2 17 9 -4 12 -39 37 -82 42 -73 7 12 -47 175
-55 167 -4 -4 -8 -1 -8 7 -3 32 -18 -70 -18 -123 -1 -32 -5 -58 -11 -58 -9 0
-14 16 -37 109 -12 45 -29 50 -30 9 0 -18 -5 -52 -12 -75 -6 -23 -12 -73 -13
-112 -1 -39 -4 -71 -8 -71 -9 0 -34 -101 -31 -127 1 -13 -3 -23 -9 -23 -7 0
-8 20 -4 65 6 54 4 65 -8 65 -22 0 -39 -24 -32 -44 5 -12 2 -15 -10 -10 -9 3
-16 15 -16 25 0 10 -4 19 -8 19 -5 0 -9 14 -10 30 0 17 -4 39 -7 50 -3 11 -2
20 3 20 6 0 13 -11 16 -25 7 -28 36 -34 36 -7 0 10 -7 28 -16 40 -13 18 -19
21 -30 11 -11 -9 -14 -8 -14 6 0 9 -13 47 -30 85 -16 38 -30 79 -31 92 -1 19
-2 18 -8 -7 -4 -16 -13 -41 -20 -54 -8 -14 -9 -21 -2 -17 6 4 11 2 11 -4 0 -6
-10 -11 -22 -10 -57 5 -66 -18 -20 -47 42 -27 60 -63 25 -48 -10 4 -33 9 -52
12 -19 3 -43 14 -54 24 l-21 19 22 0 c26 0 30 27 5 33 -10 3 -3 5 15 6 19 1
35 7 39 17 8 23 -11 99 -25 96 -7 -1 -12 7 -12 18 0 11 -9 28 -20 37 -15 13
-17 19 -7 26 8 6 6 7 -7 3 -10 -4 -24 -1 -32 5 -9 7 -19 7 -32 0 -32 -17 -162
-26 -162 -12 0 7 8 11 18 10 9 -2 28 1 42 6 14 4 32 9 40 10 12 1 65 22 79 32
2 1 -5 10 -15 20 -17 17 -17 17 -11 1 5 -13 1 -18 -13 -18 -13 0 -18 5 -14 15
7 17 -17 20 -44 6 -9 -4 -28 -11 -42 -14 -22 -5 -28 -1 -40 26 -8 18 -15 34
-15 37 -6 46 -115 154 -145 145 -17 -5 -19 -3 -11 17 5 13 15 22 25 20 20 -4
21 12 1 28 -8 7 -15 9 -15 5 0 -5 -9 0 -20 10 -11 10 -20 24 -20 31 0 19 -34
26 -62 14 -35 -16 -52 -48 -37 -66 7 -8 17 -13 24 -11 18 8 48 -20 41 -38 -5
-15 -8 -15 -28 -1 -29 21 -72 21 -65 2 3 -8 -1 -17 -9 -20 -9 -3 -14 1 -14 11
0 30 -14 3 -16 -32 -3 -36 11 -46 32 -25 8 8 15 6 24 -5 11 -13 9 -18 -8 -34
-12 -10 -19 -21 -16 -24 7 -6 -22 -64 -35 -69 -5 -2 -3 -16 4 -33 11 -26 13
-27 14 -8 1 17 6 20 24 16 21 -4 21 -4 3 11 -11 9 -17 19 -13 22 4 4 13 1 21
-5 8 -7 20 -10 25 -7 15 10 33 -65 19 -81 -15 -18 -25 -16 -31 7 -4 16 -11 18
-43 13 -22 -3 -40 -10 -42 -15 -8 -19 -21 -6 -19 19 1 20 -4 31 -20 38 -29 12
-29 22 -1 31 20 6 20 7 -8 19 -16 6 -40 11 -54 10 -27 -2 -53 -35 -33 -42 7
-2 9 -11 6 -20 -4 -10 -2 -14 5 -9 6 3 13 2 17 -4 3 -6 -2 -13 -11 -17 -10 -4
-19 -2 -22 5 -9 28 -22 -3 -22 -52 0 -28 -6 -58 -12 -65 -11 -10 -9 -12 7 -11
41 4 47 1 29 -17 -12 -12 -13 -18 -4 -21 6 -2 35 18 64 46 44 44 138 99 121
72 -3 -6 1 -10 10 -10 11 0 14 -6 9 -25 -8 -31 3 -32 27 -3 11 11 22 19 25 16
8 -8 -28 -48 -43 -48 -13 0 -33 -30 -33 -49 0 -6 6 -11 14 -11 11 0 13 -13 10
-62 -3 -35 -9 -65 -15 -66 -23 -9 -39 -36 -39 -68 0 -19 4 -33 8 -30 5 3 22 1
38 -4 16 -4 23 -9 17 -9 -7 -1 -13 -6 -13 -11 0 -7 14 -9 38 -5 l37 6 -35 -18
c-33 -18 -35 -20 -32 -66 3 -42 2 -47 -17 -47 -14 0 -25 -9 -31 -26 -9 -23
-12 -24 -27 -13 -15 13 -15 12 -6 -5 8 -14 7 -28 -4 -53 -7 -19 -11 -38 -8
-43 3 -5 -3 -11 -14 -15 -20 -6 -36 -49 -25 -66 3 -6 0 -10 -7 -8 -36 4 -40 0
-24 -31 11 -21 20 -27 32 -23 13 5 15 3 8 -13 -5 -10 -8 -35 -7 -54 0 -19 -2
-37 -6 -40 -4 -3 -15 -15 -25 -26 -17 -21 -17 -23 3 -58 23 -42 24 -46 10 -46
-20 0 -51 64 -46 93 3 15 1 38 -4 52 -5 14 -6 25 -1 25 18 0 34 60 23 83 -6
12 -14 32 -17 45 -8 30 -27 29 -19 -2 4 -17 1 -25 -13 -29 -10 -2 -25 -8 -34
-11 -12 -5 -18 0 -23 19 -4 14 -11 23 -16 20 -6 -3 -10 0 -10 7 0 27 17 39 50
36 30 -3 36 1 52 32 53 106 58 129 34 149 -11 9 -20 9 -34 2 -17 -9 -19 -8
-15 9 3 11 12 20 19 20 8 0 14 5 14 10 0 14 -19 12 -36 -4 -16 -17 -54 -10
-71 12 -12 14 -13 14 -13 -1 0 -10 6 -20 13 -23 7 -2 14 -16 15 -30 1 -14 7
-33 12 -42 9 -14 10 -13 4 7 -4 17 -2 22 7 19 8 -3 18 -33 24 -75 l11 -71 -53
5 c-48 4 -53 2 -53 -16 0 -11 5 -32 10 -47 26 -67 9 -143 -28 -129 -7 2 -22
-5 -34 -17 l-21 -21 29 7 c27 7 28 6 9 -7 -29 -20 -75 -30 -75 -16 0 6 -7 9
-15 5 -9 -3 -15 0 -15 8 0 7 12 16 28 19 15 3 36 15 47 27 11 11 28 28 38 38
22 21 21 40 -3 127 l-19 70 5 -54 c5 -38 3 -52 -5 -47 -19 12 -12 76 15 155
22 62 27 91 25 159 -1 51 2 89 9 97 7 8 9 18 6 23 -3 6 1 15 9 22 18 15 20 80
3 103 -12 16 -16 15 -61 -6 -26 -13 -45 -26 -41 -29 3 -4 -2 -18 -11 -32 -16
-23 -22 -44 -24 -73 -1 -7 -8 -13 -16 -13 -9 0 -12 -6 -9 -15 4 -9 2 -28 -4
-43 -5 -15 -20 -61 -32 -102 -12 -41 -27 -80 -32 -87 -5 -6 -8 -17 -7 -25 3
-18 -11 -125 -23 -172 -16 -65 -17 -124 -2 -130 20 -8 17 -26 -3 -26 -16 0
-18 -12 -20 -88 -2 -110 -14 -339 -20 -372 -2 -14 -8 -75 -13 -137 -6 -75 -16
-126 -29 -157 -12 -25 -21 -51 -21 -58 0 -7 -9 -24 -20 -38 -11 -14 -20 -31
-20 -38 0 -7 -4 -20 -9 -30 -5 -9 -30 -82 -56 -161 -26 -80 -55 -156 -66 -169
-10 -14 -19 -31 -19 -40 0 -15 -69 -165 -122 -267 -18 -33 -39 -73 -47 -90 -9
-16 -18 -32 -21 -35 -3 -3 -21 -41 -40 -85 -18 -44 -37 -82 -41 -85 -4 -3 -10
-17 -14 -32 -4 -14 -36 -73 -71 -130 -56 -89 -97 -184 -110 -253 -45 -240 -38
-643 17 -925 16 -85 34 -166 38 -180 5 -14 17 -52 26 -85 36 -123 143 -337
220 -440 16 -22 70 -119 118 -216 125 -248 274 -445 456 -602 l55 -46 -17 -33
c-22 -40 -141 -210 -220 -312 -39 -50 -68 -78 -85 -82 -15 -4 -40 -13 -56 -21
-16 -8 -54 -17 -84 -20 -58 -5 -121 -31 -158 -65 -12 -11 -28 -20 -35 -22 -26
-3 -38 -17 -32 -34 6 -15 4 -15 -9 -4 -14 11 -20 11 -37 0 -12 -7 -21 -18 -21
-25 0 -7 -9 -18 -20 -25 -11 -7 -20 -20 -20 -28 0 -22 -20 -40 -36 -33 -19 7
-18 -21 1 -37 8 -7 12 -17 9 -22 -4 -6 -10 -5 -15 3 -10 17 -17 10 -21 -23 -2
-15 -7 -30 -11 -34 -11 -11 -8 -21 9 -38 19 -20 34 -20 34 -2 0 8 8 22 17 31
14 15 18 15 27 3 25 -34 86 -45 86 -17 0 15 59 69 75 69 44 0 90 -84 99 -180
4 -51 14 -80 27 -80 5 0 9 12 10 28 0 23 4 20 28 -28 70 -139 114 -220 120
-220 3 0 33 -25 66 -55 33 -31 73 -63 89 -71 31 -17 104 -15 194 6 46 11 58
11 86 -3 18 -8 33 -21 34 -29 3 -38 9 -54 25 -71 13 -12 16 -27 13 -45 -5 -23
-1 -31 29 -51 19 -13 35 -27 35 -31 0 -4 17 -27 38 -51 20 -24 44 -56 51 -72
l14 -27 2219 0 2218 0 0 48 c0 26 -7 60 -15 76 -8 15 -15 36 -15 46 0 10 -7
20 -15 24 -9 3 -15 18 -15 35 0 16 -4 33 -10 36 -5 3 -10 15 -10 26 0 11 -9
42 -20 68 -21 47 -27 76 -29 139 0 18 -5 31 -10 28 -5 -4 -12 8 -16 26 -4 18
-16 48 -26 66 -11 19 -17 38 -14 42 3 5 -1 20 -10 33 -8 13 -13 32 -9 41 6 16
24 23 24 9 0 -5 4 -14 9 -22 8 -12 12 -12 25 2 21 21 20 24 -6 23 -15 -1 -24
6 -26 19 -3 11 -9 23 -14 26 -6 4 -7 16 -3 28 8 25 25 19 19 -7 -3 -11 7 -25
32 -40 34 -22 35 -22 29 -4 -3 11 -1 23 5 27 5 3 10 15 10 27 0 15 -4 18 -17
13 -32 -13 -47 -10 -51 10 -4 17 -2 18 11 6 20 -16 40 -5 34 20 -3 12 0 19 10
19 9 0 11 5 6 13 -4 6 -8 14 -9 17 -7 34 -44 57 -44 28 0 -8 -5 -7 -16 3 -19
20 -26 109 -8 109 7 0 15 -6 17 -12 4 -9 6 -7 6 3 1 9 -7 27 -18 40 -20 26
-160 103 -251 139 -70 28 -215 70 -239 70 -11 0 -30 15 -42 33 -12 17 -53 64
-91 103 -37 40 -68 80 -68 89 0 10 27 68 59 129 132 247 166 380 251 960 11
77 27 169 36 205 44 191 48 220 48 356 1 207 -56 726 -104 940 -30 137 -71
334 -81 390 -17 94 -58 270 -121 520 -12 50 -5 164 22 320 11 66 25 176 30
245 6 69 17 193 26 277 18 181 17 512 -1 663 -7 58 -14 106 -14 108 -3 7 -26
-1 -76 -24 -30 -14 -61 -24 -69 -21 -8 3 -17 -1 -20 -10 -4 -11 -2 -14 9 -9
10 3 15 -1 15 -12 0 -10 7 -27 15 -38 8 -10 14 -26 15 -34 0 -8 -10 0 -22 19
-22 35 -38 28 -19 -8 6 -11 10 -32 10 -48 -2 -25 -2 -26 -6 -4 -3 13 -14 26
-24 28 -11 3 -18 11 -15 18 2 7 -5 15 -17 19 -20 5 -20 6 -4 24 9 10 17 25 17
33 -1 11 -3 11 -13 -2 -12 -17 -28 -9 -38 18 -3 8 -10 7 -23 -2 -18 -14 -17
-17 31 -68 28 -29 55 -70 62 -92 23 -73 46 -125 56 -125 5 0 19 12 31 27 l21
27 -5 -32 c-3 -25 -11 -34 -31 -39 -34 -8 -39 -17 -47 -85 -4 -32 -11 -58 -16
-58 -5 0 -16 -16 -24 -36 -21 -49 -27 -38 -13 25 11 53 6 78 -11 51 -5 -8 -11
-18 -12 -23 -2 -4 -22 2 -46 13 -44 21 -56 36 -23 27 44 -11 39 132 -8 215
-18 32 -36 57 -39 57 -19 -3 -21 3 -8 24 9 13 14 38 11 59 -1 21 1 35 6 32 31
-19 95 49 85 91 -3 13 -13 30 -21 39 -8 8 -11 17 -6 20 11 7 43 -35 64 -86 19
-45 30 -46 112 -17 104 37 110 45 79 108 l-16 33 -27 -24 c-35 -32 -131 -82
-131 -69 0 6 36 34 80 62 44 29 80 54 79 58 -4 38 -31 134 -59 209 -30 81 -37
92 -58 92 -24 0 -24 0 -5 -47 2 -6 -5 -14 -16 -18 -13 -4 -18 -12 -15 -23 4
-10 2 -13 -3 -7 -12 15 -51 35 -67 35 -9 0 -12 7 -9 18 3 14 11 18 31 14 15
-3 33 -9 40 -15 8 -6 12 -6 12 1 0 6 -12 17 -27 24 -41 20 -42 41 -2 33 25 -4
42 0 64 15 18 12 24 20 14 20 -16 0 -133 212 -123 223 3 3 -7 19 -22 37 -15
17 -44 54 -63 83 -60 88 -115 156 -133 162 -9 3 -19 16 -22 28 -5 21 -91 109
-206 212 -114 102 -203 165 -233 165 -8 0 -17 7 -20 15 -4 8 -24 23 -46 35
-55 27 -65 25 -16 -4z m-2550 -316 c3 -6 -1 -7 -9 -4 -18 7 -21 14 -7 14 6 0
13 -4 16 -10z m-1 -167 c1 -21 6 -47 11 -58 8 -17 7 -18 -7 -7 -9 7 -24 9 -34
5 -17 -6 -17 -5 -5 10 8 10 11 28 8 46 -3 15 -1 33 5 39 16 16 21 9 22 -35z
m105 18 c16 -10 6 -31 -15 -31 -8 0 -14 9 -14 20 0 22 7 25 29 11z m46 -81
c11 -17 -5 -32 -21 -19 -8 6 -14 15 -14 20 0 12 27 11 35 -1z m-96 -97 c-11
-36 -13 -37 -22 -15 -8 17 -6 26 6 40 10 10 18 25 18 33 1 9 3 7 6 -4 2 -9 -1
-34 -8 -54z m103 2 c4 -34 3 -35 -26 -30 -27 5 -35 1 -59 -30 -32 -41 -32 -44
6 -47 15 -1 27 -8 27 -15 0 -7 8 -13 18 -13 20 0 47 -66 31 -75 -8 -5 -49 51
-49 66 0 13 -33 20 -44 9 -15 -15 -26 -12 -26 6 0 13 -7 15 -32 10 -18 -3 -36
-12 -40 -19 -6 -9 -8 -9 -8 1 0 6 9 20 20 30 11 9 42 39 69 65 27 27 54 46 59
43 5 -3 12 3 15 14 9 34 34 24 39 -15z m-131 -35 c6 0 7 -4 4 -10 -10 -16 -45
-12 -45 6 0 11 5 14 16 10 9 -3 20 -6 25 -6z m139 -55 c0 -9 -9 -15 -24 -15
-28 0 -43 16 -24 23 26 11 48 7 48 -8z m60 -5 c0 -5 -9 -8 -20 -7 -20 1 -25 8
-14 20 8 7 34 -3 34 -13z m0 -62 c0 -6 -7 -5 -15 2 -8 7 -15 17 -15 22 0 6 7
5 15 -2 8 -7 15 -17 15 -22z m-283 0 c-3 -8 -6 -5 -6 6 -1 11 2 17 5 13 3 -3
4 -12 1 -19z m83 2 c0 -11 -4 -20 -10 -20 -5 0 -10 9 -10 20 0 11 5 20 10 20
6 0 10 -9 10 -20z m2897 -35 c8 -9 13 -19 10 -22 -6 -5 -37 21 -37 31 0 10 11
6 27 -9z m345 -37 c-15 -18 -72 -51 -72 -41 1 21 41 52 69 53 10 0 11 -3 3
-12z m-3202 -14 c0 -8 -4 -12 -10 -9 -5 3 -10 10 -10 16 0 5 5 9 10 9 6 0 10
-7 10 -16z m3075 -56 c-22 -65 -44 -97 -67 -98 -22 0 -23 13 -3 30 8 7 15 18
15 25 0 7 7 18 15 25 8 7 20 30 26 52 7 28 14 37 21 30 7 -7 5 -27 -7 -64z
m-1349 44 c6 -4 13 -15 17 -24 10 -28 -18 -21 -31 7 -12 25 -7 31 14 17z
m-1429 -34 c-3 -8 -6 -5 -6 6 -1 11 2 17 5 13 3 -3 4 -12 1 -19z m130 -22 c23
-26 39 -66 26 -65 -14 1 -74 89 -60 89 8 0 23 -11 34 -24z m-112 -18 c24 -18
46 -39 49 -45 8 -19 3 -16 -39 17 -21 17 -43 30 -50 30 -7 0 -15 7 -19 15 -9
24 11 18 59 -17z m-855 18 c0 -2 -7 -6 -15 -10 -8 -3 -15 -1 -15 4 0 6 7 10
15 10 8 0 15 -2 15 -4z m3717 -2 c-3 -3 -12 -4 -19 -1 -8 3 -5 6 6 6 11 1 17
-2 13 -5z m-3237 -65 c0 -6 -4 -7 -10 -4 -5 3 -10 11 -10 16 0 6 5 7 10 4 6
-3 10 -11 10 -16z m1435 -49 c14 0 20 -27 17 -70 -1 -8 3 -28 8 -44 6 -17 6
-35 1 -45 -9 -14 -10 -14 -17 4 -13 40 -48 110 -61 123 -7 7 -13 20 -13 28 0
8 -4 14 -10 14 -15 0 -12 17 6 35 15 15 18 14 35 -14 10 -17 26 -31 34 -31z
m-5 40 c0 -5 -2 -10 -4 -10 -3 0 -8 5 -11 10 -3 6 -1 10 4 10 6 0 11 -4 11
-10z m1610 -55 c-1 -16 -40 38 -40 55 0 8 9 2 20 -15 11 -16 20 -34 20 -40z
m247 59 c-3 -3 -12 -4 -19 -1 -8 3 -5 6 6 6 11 1 17 -2 13 -5z m-59 -56 c-2
-8 12 -12 45 -11 26 0 47 -4 47 -9 0 -5 -8 -8 -17 -7 -10 2 -36 -5 -58 -15
-23 -10 -41 -13 -43 -7 -2 5 -16 -4 -31 -21 -15 -17 -33 -29 -39 -27 -8 3 -1
16 17 36 31 34 30 43 -2 43 -28 0 -15 11 25 20 49 12 58 11 56 -2z m-2630 -29
c19 -30 8 -34 -12 -4 -9 14 -13 25 -9 25 5 0 14 -9 21 -21z m92 -26 c0 -7 -4
-13 -10 -13 -5 0 -10 12 -10 28 0 21 2 24 10 12 5 -8 10 -21 10 -27z m820 27
c0 -12 -28 -25 -36 -17 -9 9 6 27 22 27 8 0 14 -5 14 -10z m1874 -31 c-3 -5
-16 -2 -30 7 -32 22 -30 25 6 13 16 -6 27 -15 24 -20z m-1326 -20 c-3 -8 -7
-3 -11 10 -4 17 -3 21 5 13 5 -5 8 -16 6 -23z m800 -43 c9 -10 18 -28 19 -40
4 -66 12 -118 17 -123 3 -4 6 -1 6 5 0 7 7 12 15 12 8 0 15 -4 15 -10 0 -5 7
-10 16 -10 12 0 15 -6 11 -21 -3 -12 2 -38 12 -58 33 -65 45 -112 31 -121 -8
-5 -9 -10 -2 -14 13 -8 35 58 34 99 -1 33 13 64 24 53 12 -13 -17 -272 -32
-289 -8 -9 -14 -20 -13 -25 5 -28 -3 -73 -16 -90 -15 -18 -15 -18 -9 9 4 17 2
27 -5 27 -11 0 -15 -19 -12 -52 1 -10 -2 -26 -8 -35 -9 -16 -10 -14 -11 10 0
36 -15 34 -29 -4 -15 -43 -14 -54 4 -39 26 21 18 -15 -10 -47 l-24 -28 -1 55
c0 30 6 65 13 76 6 12 18 32 26 44 11 20 11 22 0 18 -10 -4 -15 5 -17 30 -1
19 -7 41 -13 49 -9 10 -8 17 1 28 11 13 10 14 -4 9 -13 -5 -16 1 -17 37 0 39
-26 130 -28 104 -1 -5 -10 -21 -21 -35 l-20 -25 11 30 c6 17 12 73 12 125 0
72 2 83 6 45 l6 -50 8 36 c9 46 -9 168 -34 226 -21 50 -15 80 8 36 8 -15 22
-36 31 -47z m476 58 c21 -8 21 -34 1 -34 -17 0 -75 27 -75 35 0 7 55 6 74 -1z
m-2174 -65 c0 -24 -4 -38 -10 -34 -17 10 -11 75 7 75 2 0 3 -18 3 -41z m151
21 c-13 -11 -31 -20 -40 -20 -12 1 -11 5 8 20 13 11 31 20 40 20 12 -1 11 -5
-8 -20z m619 6 c0 -3 -4 -8 -10 -11 -5 -3 -10 -1 -10 4 0 6 5 11 10 11 6 0 10
-2 10 -4z m-1130 -59 c0 -5 -4 -5 -10 -2 -5 3 -10 14 -10 23 0 15 2 15 10 2 5
-8 10 -19 10 -23z m2657 17 c-3 -3 -12 -4 -19 -1 -8 3 -5 6 6 6 11 1 17 -2 13
-5z m-3547 -30 c0 -8 -4 -12 -10 -9 -5 3 -10 10 -10 16 0 5 5 9 10 9 6 0 10
-7 10 -16z m1808 -12 c2 -12 8 -22 13 -22 5 0 9 -7 9 -16 0 -10 -8 -6 -25 14
-27 32 -33 56 -12 50 6 -3 13 -14 15 -26z m-966 -7 c0 -5 -5 -11 -11 -13 -6
-2 -11 4 -11 13 0 9 5 15 11 13 6 -2 11 -8 11 -13z m838 -14 c0 -4 17 -15 38
-25 20 -10 43 -21 51 -25 8 -4 17 -13 19 -19 9 -28 -115 35 -136 69 -9 14 -7
16 9 12 10 -3 19 -8 19 -12z m-1426 -4 c21 -4 92 -104 88 -123 -1 -7 25 -17
63 -24 36 -7 68 -17 72 -23 4 -6 9 -3 14 9 7 17 8 17 8 1 1 -10 5 -16 10 -13
5 4 20 2 33 -3 22 -8 21 -9 -14 -16 -20 -4 -41 -4 -47 0 -6 3 -11 2 -11 -2 0
-5 9 -14 20 -21 12 -7 17 -18 14 -29 -5 -14 -4 -15 4 -4 7 9 12 10 16 2 4 -6
18 -8 31 -5 20 5 23 3 19 -14 -5 -15 1 -20 26 -25 28 -6 30 -9 20 -28 -9 -15
-15 -18 -23 -10 -6 6 -19 11 -29 11 -9 0 -22 9 -28 20 -6 11 -16 20 -23 19 -9
0 -9 -2 1 -6 14 -5 16 -23 3 -23 -5 0 -17 7 -26 16 -9 9 -19 13 -23 9 -4 -4
-2 -9 4 -12 16 -5 97 -83 92 -88 -2 -2 -21 1 -41 7 -50 15 -81 51 -81 93 0 41
-11 50 -111 84 -76 25 -106 47 -65 47 11 0 20 -4 20 -8 0 -17 16 -7 27 17 9
20 8 25 -3 25 -7 0 -20 15 -28 34 -7 18 -28 43 -45 55 -33 24 -42 48 -13 36 9
-3 21 -7 26 -8z m858 -29 c-9 -9 -12 -7 -12 12 0 19 3 21 12 12 9 -9 9 -15 0
-24z m-419 -16 c15 -26 16 -31 4 -26 -9 3 -18 12 -21 20 -7 18 -26 18 -26 0 0
-8 -4 -17 -9 -21 -6 -3 -6 7 0 27 5 18 9 34 9 36 0 13 28 -10 43 -36z m1968
-59 c-9 -15 -10 -12 -11 18 0 20 3 39 8 43 11 12 14 -42 3 -61z m-597 -34
c-13 -21 -24 -6 -24 34 l1 42 14 -34 c8 -18 12 -37 9 -42z m-174 24 c-11 -17
-11 -17 -6 0 3 10 6 24 7 30 0 9 2 9 5 0 3 -7 0 -20 -6 -30z m-120 17 c0 -5
-8 -10 -17 -10 -15 0 -16 2 -3 10 19 12 20 12 20 0z m580 -9 c-10 -21 -30 -37
-30 -26 0 14 21 45 31 45 6 0 6 -7 -1 -19z m-2744 -93 c3 -16 11 -25 17 -21 6
3 7 1 3 -5 -10 -17 -23 -15 -30 6 -21 58 -25 79 -19 97 6 17 8 14 14 -15 5
-19 11 -47 15 -62z m3724 67 c-7 -8 -17 -15 -22 -15 -11 0 14 29 26 30 5 0 3
-7 -4 -15z m-94 -152 c-1 -37 -5 -62 -11 -60 -5 1 -8 21 -7 45 3 35 1 42 -14
42 -14 0 -15 3 -6 12 7 7 12 32 13 58 l1 45 12 -40 c7 -22 12 -68 12 -102z
m-1378 107 c7 -12 17 -18 22 -15 6 3 10 -1 10 -10 0 -13 -4 -14 -20 -5 -21 11
-46 50 -33 50 5 0 14 -9 21 -20z m-1244 4 c20 -8 21 -24 2 -24 -8 0 -16 7 -20
15 -6 17 -4 18 18 9z m-856 -34 c13 0 16 -38 6 -64 -9 -22 -24 -20 -24 3 0 11
-4 21 -8 23 -5 2 -12 18 -15 37 -7 33 -6 33 11 18 10 -10 24 -17 30 -17z
m2712 -44 c0 -7 -17 -33 -39 -57 -21 -24 -46 -60 -56 -79 -23 -45 -61 -80 -87
-80 -27 0 -11 20 37 46 21 11 33 24 30 32 -3 8 8 30 25 50 16 20 30 43 30 51
0 19 40 62 51 55 5 -3 9 -11 9 -18z m-2885 4 c-3 -5 -11 -10 -16 -10 -6 0 -7
5 -4 10 3 6 11 10 16 10 6 0 7 -4 4 -10z m3095 -60 c0 -10 -9 -24 -20 -30 -16
-8 -20 -8 -20 4 0 13 25 46 36 46 2 0 4 -9 4 -20z m-2950 -10 c0 -5 -4 -10
-10 -10 -5 0 -10 5 -10 10 0 6 5 10 10 10 6 0 10 -4 10 -10z m2420 -5 c0 -8
-4 -15 -10 -15 -5 0 -7 7 -4 15 4 8 8 15 10 15 2 0 4 -7 4 -15z m-2605 -41
c-26 -20 -75 -46 -75 -39 0 7 73 54 85 54 6 0 1 -7 -10 -15z m94 -63 c-7 -38
-17 -67 -21 -64 -5 2 -6 13 -3 24 4 10 2 19 -3 19 -13 0 -22 -36 -22 -88 0
-29 -4 -41 -11 -36 -17 10 -4 109 20 150 12 19 21 42 21 50 0 8 5 12 10 9 6
-3 10 -1 10 6 0 7 3 10 6 6 3 -3 0 -37 -7 -76z m3014 45 c-10 -13 -19 -23 -21
-21 -5 5 22 45 31 45 4 0 0 -11 -10 -24z m-343 -11 c0 -8 -4 -15 -10 -15 -5 0
-7 7 -4 15 4 8 8 15 10 15 2 0 4 -7 4 -15z m-123 -11 c-3 -3 -12 -4 -19 -1 -8
3 -5 6 6 6 11 1 17 -2 13 -5z m473 -24 c0 -5 -5 -10 -11 -10 -6 0 -17 -7 -26
-15 -8 -8 -19 -12 -25 -9 -5 3 3 14 19 24 33 22 43 24 43 10z m599 -66 c-7
-27 -21 -62 -31 -79 -10 -16 -24 -42 -30 -57 -7 -16 -16 -28 -20 -28 -5 0 -5
12 -2 28 12 46 34 92 44 92 6 0 10 9 10 20 0 23 29 84 36 77 3 -2 -1 -26 -7
-53z m110 -36 c1 -5 -3 -8 -9 -8 -5 0 -10 12 -9 28 0 24 1 25 9 7 5 -11 9 -23
9 -27z m-242 10 c-3 -8 -6 -5 -6 6 -1 11 2 17 5 13 3 -3 4 -12 1 -19z m-3487
-92 c0 -8 6 -16 13 -19 6 -2 9 -7 5 -11 -10 -11 -48 12 -48 29 0 8 7 15 15 15
8 0 15 -6 15 -14z m2970 -6 c0 -12 -79 -65 -109 -73 -21 -5 -22 -4 -10 8 20
19 103 74 112 75 4 0 7 -4 7 -10z m470 -76 c-20 -50 -25 -43 -20 26 3 46 8 53
25 36 12 -12 11 -21 -5 -62z m-3190 62 c0 -3 -4 -8 -10 -11 -5 -3 -10 -1 -10
4 0 6 5 11 10 11 6 0 10 -2 10 -4z m2396 -114 c-13 -13 -17 9 -10 50 l9 43 3
-44 c2 -23 1 -46 -2 -49z m-673 52 c21 -28 16 -44 -7 -25 -15 12 -28 51 -18
51 4 0 15 -12 25 -26z m1797 18 c0 -5 -7 -17 -15 -28 -14 -18 -14 -18 -15 9 0
17 5 27 15 27 8 0 15 -4 15 -8z m-3770 -53 c0 -8 -9 -25 -20 -37 -11 -12 -20
-25 -20 -30 0 -15 -28 -34 -40 -27 -6 4 1 20 20 43 21 25 30 47 30 71 0 33 1
34 15 15 8 -10 15 -26 15 -35z m2830 41 c0 -5 -7 -10 -15 -10 -9 0 -18 -7 -21
-15 -4 -8 -10 -15 -15 -15 -13 0 -11 24 3 38 15 15 48 16 48 2z m1037 -22 c-3
-8 -6 -5 -6 6 -1 11 2 17 5 13 3 -3 4 -12 1 -19z m-2117 -9 c0 -6 -4 -7 -10
-4 -5 3 -10 11 -10 16 0 6 5 7 10 4 6 -3 10 -11 10 -16z m-1640 -14 c0 -8 -11
-17 -25 -21 -37 -9 -42 2 -8 20 35 19 33 19 33 1z m-73 -50 c-4 -11 -67 -26
-67 -15 0 4 7 10 15 14 8 3 15 12 15 21 0 13 3 13 20 3 11 -7 19 -17 17 -23z
m3724 2 c-13 -13 -26 -3 -16 12 3 6 11 8 17 5 6 -4 6 -10 -1 -17z m-1037 -41
c-9 -15 -19 -24 -22 -22 -2 3 3 17 12 32 10 14 20 23 23 21 2 -3 -3 -17 -13
-31z m202 -3 c-11 -11 -19 6 -11 24 8 17 8 17 12 0 3 -10 2 -21 -1 -24z
m-2786 -33 c0 -5 -4 -10 -10 -10 -5 0 -10 5 -10 10 0 6 5 10 10 10 6 0 10 -4
10 -10z m-132 -12 c-3 -7 -20 -14 -39 -16 l-34 -3 25 15 c32 18 53 20 48 4z
m2592 3 c0 -17 -18 -21 -24 -6 -3 9 0 15 9 15 8 0 15 -4 15 -9z m-60 -111 c0
-12 -7 -35 -16 -51 l-15 -31 -21 24 -20 23 21 3 c12 2 19 8 15 13 -6 11 13 39
27 39 5 0 9 -9 9 -20z m-87 -20 c-4 -16 -8 -18 -19 -9 -20 16 -17 29 5 29 14
0 18 -5 14 -20z m-373 -81 c0 -15 -50 -2 -72 18 -10 9 -15 19 -13 23 7 11 85
-28 85 -41z m360 35 c0 -8 -4 -12 -10 -9 -5 3 -10 10 -10 16 0 5 5 9 10 9 6 0
10 -7 10 -16z m-445 -353 c-3 -6 -11 -8 -17 -5 -6 4 -5 9 3 15 16 10 23 4 14
-10z m-159 -23 c-3 -13 -6 -30 -6 -38 0 -8 -4 -22 -10 -30 -7 -12 -13 -10 -32
11 -19 21 -21 28 -11 38 8 7 13 8 13 1 0 -5 7 -10 15 -10 9 0 15 9 15 25 0 14
5 25 11 25 7 0 9 -9 5 -22z m479 -48 c3 -5 -1 -10 -9 -10 -9 0 -16 5 -16 10 0
6 4 10 9 10 6 0 13 -4 16 -10z m-428 -15 c9 -25 -6 -31 -22 -9 -14 18 -14 18
-15 -8 0 -19 4 -26 14 -22 7 3 16 -2 19 -10 4 -11 1 -16 -11 -16 -11 0 -13 -3
-5 -8 8 -5 4 -14 -13 -31 l-24 -23 0 23 c0 13 -7 33 -15 43 -19 25 -19 37 0
30 10 -4 15 0 15 14 0 31 46 44 57 17z m380 -15 c10 -21 9 -27 -13 -47 -14
-13 -33 -22 -42 -22 -15 1 -15 2 1 6 21 5 21 12 2 40 -14 19 -13 23 1 38 20
20 36 15 51 -15z m-241 -35 c1 -14 -1 -25 -5 -25 -3 0 -16 -3 -29 -6 -22 -6
-22 -6 -5 25 22 37 37 40 39 6z m104 10 c0 -8 11 -25 25 -37 16 -14 23 -28 19
-40 -3 -10 -1 -18 5 -18 6 0 11 5 11 10 0 6 7 10 16 10 11 0 8 -7 -10 -24 -33
-30 -33 -40 2 -52 26 -10 26 -10 -10 -10 -27 0 -38 5 -41 18 -3 10 -12 18 -21
18 -12 0 -14 7 -10 29 5 24 1 35 -19 54 -24 22 -25 24 -9 39 22 21 42 22 42 3z
m46 -22 c-10 -10 -19 5 -10 18 6 11 8 11 12 0 2 -7 1 -15 -2 -18z m-131 -43
c3 -5 1 -10 -4 -10 -6 0 -11 5 -11 10 0 6 2 10 4 10 3 0 8 -4 11 -10z m-165
-41 c0 -6 -4 -7 -10 -4 -5 3 -10 11 -10 16 0 6 5 7 10 4 6 -3 10 -11 10 -16z
m154 -25 c3 -8 2 -12 -4 -9 -6 3 -10 10 -10 16 0 14 7 11 14 -7z m1225 2 c8
-10 8 -16 -2 -24 -15 -13 -31 -4 -35 21 -3 20 21 23 37 3z m-66 -13 c-7 -2
-19 -2 -25 0 -7 3 -2 5 12 5 14 0 19 -2 13 -5z m17 -43 c0 -5 -4 -10 -10 -10
-5 0 -10 5 -10 10 0 6 5 10 10 10 6 0 10 -4 10 -10z m43 -11 c6 -23 27 -17 27
7 0 8 4 14 9 14 10 0 71 -58 71 -68 0 -3 -5 -1 -12 6 -17 17 -28 15 -21 -4 5
-14 3 -14 -16 -2 -18 11 -23 11 -30 -1 -5 -8 -11 -9 -15 -3 -3 6 0 13 6 16 7
2 2 4 -12 3 -16 -1 -24 3 -22 12 1 7 -3 19 -9 27 -9 11 -8 14 4 14 8 0 17 -9
20 -21z m-1178 1 c3 -5 -1 -10 -10 -10 -9 0 -13 5 -10 10 3 6 8 10 10 10 2 0
7 -4 10 -10z m281 -1310 c7 0 11 -6 8 -13 -6 -16 -81 -14 -98 3 -8 9 -6 11 11
6 12 -4 24 -2 28 4 4 6 14 9 22 6 8 -3 21 -6 29 -6z m-170 -45 c1 -16 -3 -28
-12 -32 -8 -3 -12 -9 -9 -13 3 -5 1 -11 -4 -14 -5 -4 -13 -1 -16 4 -5 7 -12 5
-21 -7 -8 -11 -13 -13 -14 -5 0 6 -5 12 -11 12 -5 0 -7 -4 -4 -10 3 -6 -5 -10
-19 -10 -14 0 -28 -4 -31 -10 -8 -12 -45 -13 -45 -1 0 4 15 13 33 18 29 10 27
10 -23 7 -30 -1 -45 -1 -32 2 18 4 21 9 12 19 -8 10 -4 18 21 36 29 20 32 21
41 5 6 -11 14 -14 21 -8 7 4 25 9 42 10 16 1 36 9 44 17 18 18 23 14 27 -20z
m2204 -3135 c0 -5 -2 -10 -4 -10 -3 0 -8 5 -11 10 -3 6 -1 10 4 10 6 0 11 -4
11 -10z m110 -318 c0 -15 -2 -15 -10 -2 -13 20 -13 33 0 25 6 -3 10 -14 10
-23z m40 -122 c0 -8 -7 -2 -15 14 -8 15 -15 33 -15 40 1 16 29 -36 30 -54z
m24 -70 c5 -17 4 -20 -2 -10 -5 8 -13 26 -16 40 -5 17 -4 20 2 10 5 -8 13 -26
16 -40z m26 -55 c0 -19 -6 -19 -14 0 -3 8 -1 15 4 15 6 0 10 -7 10 -15z"/>
<path d="M5935 6699 c-4 -17 -4 -67 0 -112 7 -74 8 -79 21 -56 7 13 13 36 14
52 0 15 5 27 10 27 13 0 2 73 -11 78 -5 2 -9 10 -9 17 0 28 -19 24 -25 -6z"/>
<path d="M5980 6531 c-10 -55 -11 -74 -2 -83 9 -9 12 -9 12 2 0 7 8 22 17 32
15 17 15 20 3 28 -11 7 -11 10 -2 10 8 0 10 9 6 28 -14 58 -22 55 -34 -17z"/>
<path d="M6027 6420 c-3 -14 -9 -43 -12 -65 -6 -37 -5 -38 8 -20 22 31 28 60
18 86 l-9 24 -5 -25z"/>
<path d="M3385 6640 c7 -11 45 -33 45 -26 0 2 -7 12 -16 20 -17 18 -39 22 -29
6z"/>
<path d="M3967 8100 c-10 -12 -21 -18 -26 -16 -5 3 -11 -5 -13 -19 -3 -14 -1
-25 3 -25 5 0 9 8 9 18 0 11 3 13 8 5 9 -15 22 -6 45 30 21 33 1 38 -26 7z"/>
<path d="M4110 8110 c0 -5 5 -10 10 -10 6 0 10 5 10 10 0 6 -4 10 -10 10 -5 0
-10 -4 -10 -10z"/>
<path d="M3247 8053 c-4 -3 -7 -13 -7 -22 -1 -22 -46 -53 -73 -49 -17 2 -23
-3 -25 -20 -2 -15 -9 -22 -18 -18 -7 3 -20 -1 -28 -9 -7 -8 -16 -11 -20 -8 -3
4 -6 -1 -6 -10 0 -9 -4 -17 -10 -17 -5 0 -10 -4 -10 -9 0 -6 20 -13 45 -17 25
-3 48 -10 51 -15 3 -5 16 -9 30 -9 14 0 22 4 19 10 -3 5 9 9 30 8 20 -1 40 4
44 11 6 10 16 9 44 -3 35 -14 61 -6 35 11 -17 10 -118 21 -118 12 0 -4 -13 -9
-30 -11 -16 -3 -30 -1 -30 3 0 5 -14 6 -32 2 -22 -4 -29 -3 -24 5 4 7 17 12
28 12 30 0 88 41 88 62 0 9 6 23 13 30 6 7 13 23 15 36 3 23 0 27 -11 15z"/>
<path d="M4050 8043 c0 -7 4 -13 9 -13 5 0 11 6 14 13 3 8 -1 14 -9 14 -8 0
-14 -6 -14 -14z"/>
<path d="M5490 8036 c0 -7 72 -47 77 -43 6 7 -48 47 -63 47 -8 0 -14 -2 -14
-4z"/>
<path d="M3823 7985 c-13 -7 -20 -15 -15 -20 4 -4 -3 -4 -15 -1 -22 7 -23 4
-23 -39 l0 -46 26 20 c27 21 54 28 54 13 0 -4 -4 -21 -9 -39 -5 -17 -7 -34 -4
-37 13 -13 33 19 34 53 l1 36 7 -30 c4 -17 13 -40 20 -50 11 -18 12 -17 6 10
-3 17 -8 49 -12 73 -6 45 -11 49 -32 30 -8 -7 -12 -8 -9 -3 3 6 3 17 -1 26 -5
12 -10 13 -28 4z"/>
<path d="M4211 7968 c-1 -28 6 -46 28 -70 16 -18 33 -29 38 -25 4 5 0 13 -10
18 -20 11 -24 34 -4 26 8 -3 6 10 -7 39 -11 23 -23 38 -27 32 -4 -7 -8 -5 -12
3 -3 8 -6 -3 -6 -23z"/>
<path d="M3310 7964 c0 -10 -7 -13 -22 -9 -13 2 -36 -2 -53 -9 l-30 -14 45 -2
c25 -1 55 -3 68 -4 17 -2 22 2 22 20 0 12 -7 24 -15 28 -9 3 -15 0 -15 -10z"/>
<path d="M4450 7958 c0 -18 18 -34 28 -24 3 4 -2 14 -11 23 -16 16 -17 16 -17
1z"/>
<path d="M4095 7929 c-15 -28 -15 -30 2 -27 15 3 18 -4 17 -45 -1 -34 1 -46 9
-38 5 5 23 7 38 4 20 -4 29 -1 29 7 0 21 -61 111 -71 104 -5 -3 -6 2 -3 10 11
28 -5 17 -21 -15z"/>
<path d="M4330 7950 c-12 -8 -12 -10 2 -15 9 -4 14 -13 12 -20 -3 -7 -1 -16 5
-20 7 -4 11 5 11 24 0 34 -10 44 -30 31z"/>
<path d="M5544 7922 c9 -14 111 -92 123 -92 4 -1 18 -9 31 -20 16 -13 22 -26
17 -39 -4 -13 1 -24 16 -35 28 -19 38 -12 16 12 -12 13 -14 21 -6 29 13 13 2
56 -12 48 -5 -4 -9 -2 -9 4 0 11 -97 61 -119 61 -8 0 -26 10 -39 23 -14 12
-22 16 -18 9z"/>
<path d="M4960 7916 c0 -2 7 -7 16 -10 8 -3 12 -2 9 4 -6 10 -25 14 -25 6z"/>
<path d="M3702 7875 c0 -16 2 -22 5 -12 2 9 2 23 0 30 -3 6 -5 -1 -5 -18z"/>
<path d="M3417 7867 c26 -35 143 -73 143 -47 0 6 -3 9 -7 9 -22 -4 -41 3 -59
19 -16 15 -75 42 -91 42 -2 0 4 -11 14 -23z"/>
<path d="M4346 7838 c-12 -46 -7 -68 15 -68 19 0 21 4 14 38 -8 47 -21 60 -29
30z"/>
<path d="M4308 7845 c-7 -7 2 -55 11 -55 3 0 7 14 8 30 2 28 -6 38 -19 25z"/>
<path d="M3123 7834 c-7 -3 -13 -10 -13 -15 0 -6 4 -8 9 -4 5 3 12 1 16 -5 9
-14 42 -13 49 3 3 6 4 1 3 -13 -1 -14 3 -25 8 -25 6 0 15 -4 22 -8 6 -4 14 -3
17 2 4 5 2 12 -4 16 -15 9 -12 25 5 25 8 0 15 5 15 10 0 6 -13 10 -29 10 -16
0 -41 2 -57 5 -16 2 -35 2 -41 -1z"/>
<path d="M5428 7823 c13 -23 71 -63 93 -63 17 0 -36 51 -56 54 -7 1 -21 8 -31
16 -16 14 -16 13 -6 -7z"/>
<path d="M5350 7823 c0 -5 27 -32 60 -61 33 -29 60 -47 60 -40 0 7 -27 35 -60
61 -33 26 -60 44 -60 40z"/>
<path d="M5215 7778 c55 -62 59 -66 45 -38 -15 31 -60 80 -73 80 -5 0 8 -19
28 -42z"/>
<path d="M3274 7789 c0 -10 4 -19 8 -19 4 0 8 6 8 14 0 8 -4 17 -8 20 -4 2 -8
-4 -8 -15z"/>
<path d="M3410 7800 c0 -5 10 -10 23 -10 18 0 19 2 7 10 -19 13 -30 13 -30 0z"/>
<path d="M4130 7800 c0 -12 40 -34 47 -26 9 8 -17 36 -33 36 -8 0 -14 -4 -14
-10z"/>
<path d="M4210 7773 c0 -12 5 -25 10 -28 13 -8 13 15 0 35 -8 12 -10 11 -10
-7z"/>
<path d="M5778 7764 c24 -33 57 -31 34 2 -4 6 -17 13 -29 16 -22 6 -22 5 -5
-18z"/>
<path d="M3296 7731 c-9 -13 21 -41 44 -41 16 0 18 4 11 23 -9 23 -45 35 -55
18z"/>
<path d="M4108 7705 c-2 -20 -2 -38 1 -41 7 -7 29 49 23 64 -8 23 -20 12 -24
-23z"/>
<path d="M4355 7730 c4 -6 11 -8 16 -5 14 9 11 15 -7 15 -8 0 -12 -5 -9 -10z"/>
<path d="M4414 7703 c4 -8 2 -13 -8 -13 -11 0 -10 -8 7 -39 20 -36 37 -45 37
-20 0 6 -4 8 -9 5 -13 -9 -23 25 -11 39 7 9 5 16 -7 26 -11 9 -14 10 -9 2z"/>
<path d="M4320 7694 c0 -7 48 -54 55 -54 9 0 -9 36 -23 48 -17 13 -32 16 -32
6z"/>
<path d="M5348 7682 c9 -10 19 -17 21 -16 6 5 -20 34 -30 34 -5 0 -1 -8 9 -18z"/>
<path d="M2827 7664 c-11 -14 -17 -28 -14 -31 9 -8 79 21 84 35 8 19 -7 29
-18 12 -8 -11 -12 -12 -16 -2 -7 18 -16 15 -36 -14z"/>
<path d="M3320 7655 c0 -7 8 -19 18 -25 14 -9 11 -10 -15 -7 -18 2 -33 1 -33
-2 1 -17 19 -26 58 -28 46 -3 47 4 3 55 -22 26 -31 28 -31 7z"/>
<path d="M2635 7650 c-4 -6 -15 -8 -26 -5 -11 4 -19 2 -19 -4 0 -6 8 -11 18
-11 20 0 64 29 45 30 -6 0 -15 -5 -18 -10z"/>
<path d="M5511 7630 c14 -31 19 -36 19 -24 0 6 -7 19 -16 30 -14 18 -14 18 -3
-6z"/>
<path d="M5350 7626 c0 -7 7 -19 15 -26 12 -10 16 -9 21 3 3 9 3 21 -1 27 -9
15 -35 12 -35 -4z"/>
<path d="M5450 7634 c0 -5 7 -19 15 -30 8 -10 15 -14 15 -8 0 5 -7 19 -15 30
-8 10 -15 14 -15 8z"/>
<path d="M5886 7618 c17 -58 71 -80 71 -29 0 29 0 29 -17 8 l-17 -21 -17 32
c-19 37 -30 42 -20 10z"/>
<path d="M2903 7622 c-22 -3 -31 -26 -15 -36 10 -6 45 20 41 31 -2 4 -14 7
-26 5z"/>
<path d="M5570 7616 c0 -4 9 -25 19 -45 30 -56 54 -133 53 -169 0 -20 7 -41
18 -52 18 -18 19 -18 25 11 9 39 -2 83 -37 149 -30 56 -78 122 -78 106z"/>
<path d="M4170 7593 c0 -11 7 -27 16 -34 15 -12 16 -11 9 11 -10 35 -25 49
-25 23z"/>
<path d="M5398 7589 c-24 -13 -23 -51 2 -80 l19 -24 1 22 c0 12 -4 25 -10 28
-5 3 -10 12 -10 18 1 7 14 -4 30 -23 30 -34 40 -57 20 -45 -21 13 -9 -18 15
-37 14 -11 25 -26 25 -34 0 -8 5 -14 10 -14 13 0 14 -3 -14 68 -21 52 -63 133
-69 132 -1 0 -10 -5 -19 -11z"/>
<path d="M5982 7577 c-11 -12 -9 -53 2 -64 3 -3 8 11 12 31 7 41 2 53 -14 33z"/>
<path d="M2530 7561 c0 -7 -4 -9 -10 -6 -5 3 -10 1 -10 -4 0 -6 4 -11 9 -11
13 0 25 20 17 27 -3 4 -6 1 -6 -6z"/>
<path d="M5566 7555 c4 -8 11 -15 16 -15 6 0 5 6 -2 15 -7 8 -14 15 -16 15 -2
0 -1 -7 2 -15z"/>
<path d="M3338 7553 c6 -2 18 -2 25 0 6 3 1 5 -13 5 -14 0 -19 -2 -12 -5z"/>
<path d="M2600 7534 c0 -8 5 -12 10 -9 6 4 8 11 5 16 -9 14 -15 11 -15 -7z"/>
<path d="M5945 7540 c-3 -5 -1 -10 4 -10 6 0 11 5 11 10 0 6 -2 10 -4 10 -3 0
-8 -4 -11 -10z"/>
<path d="M2672 7525 c-1 -6 -17 -16 -34 -23 -26 -10 -30 -14 -19 -21 10 -7 19
-4 28 7 11 16 13 15 14 -3 1 -11 2 -26 2 -34 -1 -8 2 -10 9 -3 5 5 8 27 5 48
-2 22 -4 34 -5 29z"/>
<path d="M4469 7513 c5 -10 9 -22 9 -28 0 -5 5 -11 11 -13 17 -6 13 24 -5 42
-20 21 -27 20 -15 -1z"/>
<path d="M2550 7500 c-8 -5 -11 -12 -7 -16 4 -4 13 -2 19 4 15 15 7 24 -12 12z"/>
<path d="M3572 7470 c0 -19 2 -27 5 -17 2 9 2 25 0 35 -3 9 -5 1 -5 -18z"/>
<path d="M5588 7473 c5 -21 7 -23 10 -9 2 10 0 22 -6 28 -6 6 -7 0 -4 -19z"/>
<path d="M2286 7475 c-3 -8 -1 -15 4 -15 6 0 10 7 10 15 0 8 -2 15 -4 15 -2 0
-6 -7 -10 -15z"/>
<path d="M5926 7475 c-3 -8 -15 -15 -26 -15 -18 0 -30 -19 -12 -21 29 -3 57
-11 67 -19 9 -7 18 -2 30 17 l18 28 -22 -19 c-17 -16 -24 -17 -34 -7 -9 10 -8
14 6 22 9 6 17 14 17 19 0 16 -37 11 -44 -5z"/>
<path d="M3609 7450 c-3 -71 5 -95 22 -70 11 17 4 79 -11 94 -7 7 -10 -1 -11
-24z"/>
<path d="M3811 7453 c-1 -17 -6 -35 -12 -39 -8 -5 -9 -32 -4 -93 4 -47 7 -98
7 -113 1 -41 16 -34 23 10 3 20 10 56 15 80 6 24 8 48 5 53 -4 5 -12 37 -20
72 -10 44 -14 53 -14 30z m19 -84 c0 -6 -4 -7 -10 -4 -5 3 -10 11 -10 16 0 6
5 7 10 4 6 -3 10 -11 10 -16z"/>
<path d="M5340 7450 c0 -18 60 -110 71 -110 14 0 11 18 -7 38 -9 9 -27 32 -40
51 -13 19 -24 29 -24 21z"/>
<path d="M2625 7440 c-3 -5 -4 -10 -2 -10 3 0 1 -16 -3 -36 -9 -37 2 -84 18
-84 8 0 32 42 32 55 0 3 -7 5 -15 5 -8 0 -15 5 -15 10 0 6 4 10 9 10 16 0 21
31 7 46 -17 17 -23 17 -31 4z"/>
<path d="M4190 7444 c0 -6 9 -23 20 -37 12 -15 20 -28 20 -29 -1 -2 1 -10 4
-18 2 -8 9 -33 14 -55 l10 -40 1 42 c1 23 -3 45 -9 48 -5 3 -10 14 -10 23 0
19 -49 84 -50 66z"/>
<path d="M5262 7413 c-10 -33 -9 -40 8 -58 20 -19 20 -19 20 25 0 64 -14 79
-28 33z"/>
<path d="M5766 7437 c3 -10 9 -15 12 -12 3 3 0 11 -7 18 -10 9 -11 8 -5 -6z"/>
<path d="M6014 7425 c-6 -23 0 -45 10 -34 10 12 15 59 6 59 -5 0 -12 -11 -16
-25z"/>
<path d="M5600 7431 c0 -6 4 -13 10 -16 6 -3 7 1 4 9 -7 18 -14 21 -14 7z"/>
<path d="M6190 7382 c0 -33 4 -51 10 -47 13 8 13 65 0 85 -7 11 -10 0 -10 -38z"/>
<path d="M5081 7398 c1 -18 2 -19 6 -5 6 24 23 11 23 -19 0 -13 5 -24 10 -24
6 0 10 6 10 14 0 8 3 22 7 32 5 13 3 16 -10 11 -9 -3 -19 -2 -22 3 -11 18 -25
10 -24 -12z"/>
<path d="M2908 7387 c-36 -29 -35 -38 2 -30 27 5 29 3 23 -13 -6 -16 -5 -17 9
-4 11 11 13 19 6 28 -7 8 -7 17 2 27 20 24 -10 18 -42 -8z"/>
<path d="M4496 7391 c-3 -9 -13 -27 -23 -41 -15 -21 -15 -23 -1 -12 12 10 18
10 24 1 4 -8 3 -9 -4 -5 -8 5 -12 0 -12 -13 0 -12 -5 -21 -11 -21 -6 0 -9 -6
-7 -12 3 -7 17 -13 32 -13 22 -1 28 4 33 26 5 28 31 34 46 12 11 -18 27 -16
27 3 0 8 -4 13 -9 10 -5 -3 -14 1 -21 9 -7 8 -24 15 -37 15 -20 0 -23 3 -14
13 6 8 8 16 5 20 -3 3 4 3 17 0 14 -4 20 -2 16 4 -12 19 -55 21 -61 4z"/>
<path d="M5316 7363 c-12 -51 -13 -132 -1 -137 6 -2 3 -11 -7 -22 -11 -11 -18
-13 -18 -6 0 7 -11 22 -25 34 -14 12 -25 27 -25 33 0 7 -11 24 -25 39 -14 15
-25 24 -25 20 0 -3 -6 -1 -14 6 -8 6 -13 17 -10 25 3 7 0 16 -7 21 -9 5 -10 2
-6 -9 3 -9 2 -19 -4 -23 -5 -3 -8 -13 -5 -22 3 -10 7 -48 10 -87 3 -38 12 -84
21 -102 13 -26 14 -45 7 -96 -11 -88 10 -80 39 14 12 38 25 69 30 69 14 0 11
-18 -3 -23 -7 -2 -10 -8 -5 -12 10 -12 33 19 67 93 31 64 34 93 21 172 l-7 45
-8 -32z m-149 -95 c-3 -8 -6 -5 -6 6 -1 11 2 17 5 13 3 -3 4 -12 1 -19z"/>
<path d="M5713 7303 c-7 -36 -8 -74 -4 -86 11 -29 25 -4 17 29 -5 17 -3 23 4
19 6 -4 10 12 10 44 0 73 -14 70 -27 -6z"/>
<path d="M6076 7326 c-3 -13 -9 -31 -12 -40 -3 -9 -2 -16 4 -16 5 0 13 16 17
36 7 41 1 58 -9 20z"/>
<path d="M6130 7320 c0 -18 4 -29 10 -25 6 3 10 15 10 25 0 10 -4 22 -10 25
-6 4 -10 -7 -10 -25z"/>
<path d="M2350 7319 c0 -5 5 -7 10 -4 6 3 10 8 10 11 0 2 -4 4 -10 4 -5 0 -10
-5 -10 -11z"/>
<path d="M2391 7321 c-10 -6 -10 -10 -1 -16 13 -8 24 -1 19 14 -3 6 -10 7 -18
2z"/>
<path d="M3740 7321 c0 -5 5 -13 10 -16 6 -3 10 -2 10 4 0 5 -4 13 -10 16 -5
3 -10 2 -10 -4z"/>
<path d="M5421 7298 c-6 -17 -11 -40 -10 -52 1 -18 3 -17 12 7 6 15 14 27 19
27 4 0 8 -12 8 -27 0 -21 3 -24 9 -14 5 8 7 20 4 28 -3 7 0 19 6 27 8 10 5 15
-13 24 -22 10 -25 8 -35 -20z"/>
<path d="M2915 7310 c-3 -5 1 -10 10 -10 9 0 13 5 10 10 -3 6 -8 10 -10 10 -2
0 -7 -4 -10 -10z"/>
<path d="M4792 7300 c0 -14 2 -19 5 -12 2 6 2 18 0 25 -3 6 -5 1 -5 -13z"/>
<path d="M4632 7297 c-12 -14 -5 -57 9 -57 9 0 29 42 29 61 0 13 -26 11 -38
-4z"/>
<path d="M2504 7286 c-29 -21 -12 -28 24 -10 18 8 32 17 32 20 0 10 -38 3 -56
-10z"/>
<path d="M5019 7267 c5 -18 6 -47 4 -64 -3 -17 0 -34 6 -37 6 -4 11 -18 11
-32 0 -13 4 -24 9 -24 14 0 21 43 11 75 -5 17 -12 48 -17 69 -4 22 -13 41 -20
43 -8 3 -9 -6 -4 -30z"/>
<path d="M2757 7273 c-8 -10 -18 -31 -22 -48 l-6 -30 22 25 c12 14 24 24 28
23 3 -1 7 10 7 23 2 28 -7 31 -29 7z"/>
<path d="M2460 7266 c0 -9 5 -16 10 -16 6 0 10 4 10 9 0 6 -4 13 -10 16 -5 3
-10 -1 -10 -9z"/>
<path d="M3760 7254 c0 -10 5 -26 10 -34 8 -11 9 -7 4 15 -8 37 -14 45 -14 19z"/>
<path d="M4117 7263 c-3 -5 1 -19 9 -33 l14 -25 -6 30 c-8 35 -10 39 -17 28z"/>
<path d="M4500 7245 c7 -9 15 -13 17 -11 7 7 -7 26 -19 26 -6 0 -6 -6 2 -15z"/>
<path d="M5491 7233 c0 -12 -4 -30 -7 -40 -5 -14 -4 -15 5 -7 7 6 11 24 8 40
-3 21 -4 23 -6 7z"/>
<path d="M5740 7186 c0 -19 5 -38 10 -41 6 -4 10 8 10 29 0 19 -4 38 -10 41
-6 4 -10 -8 -10 -29z"/>
<path d="M5793 7135 c0 -44 2 -61 4 -37 2 23 2 59 0 80 -2 20 -4 1 -4 -43z"/>
<path d="M5350 7161 c0 -37 -3 -43 -18 -39 -12 3 -24 -2 -31 -13 -7 -12 -7
-19 -1 -19 5 0 10 -9 10 -20 0 -11 5 -20 10 -20 6 0 10 -5 10 -11 0 -5 -4 -7
-10 -4 -6 4 -10 -5 -10 -19 0 -26 22 -35 46 -18 31 20 49 102 23 102 -5 0 -9
17 -9 38 0 20 -5 44 -10 52 -7 11 -10 3 -10 -29z m10 -72 c0 -6 -4 -7 -10 -4
-5 3 -10 11 -10 16 0 6 5 7 10 4 6 -3 10 -11 10 -16z"/>
<path d="M4205 7174 c4 -11 8 -25 8 -31 0 -7 4 -13 9 -13 15 0 4 53 -11 58
-10 4 -12 0 -6 -14z"/>
<path d="M4764 7167 c-9 -24 3 -64 21 -71 20 -7 20 42 0 68 -13 17 -15 17 -21
3z"/>
<path d="M5017 7144 c-10 -11 -9 -64 2 -64 6 0 12 4 15 8 8 13 -8 65 -17 56z"/>
<path d="M5447 7111 c-4 -18 -7 -41 -7 -50 1 -14 2 -14 14 2 7 9 16 17 19 17
7 0 0 -51 -14 -94 -9 -29 -9 -29 11 -11 25 23 29 115 6 115 -9 0 -16 12 -18
28 -3 26 -3 26 -11 -7z"/>
<path d="M2416 7114 c-9 -24 -2 -26 12 -4 7 11 8 20 3 20 -5 0 -12 -7 -15 -16z"/>
<path d="M2843 7110 c3 -11 1 -20 -5 -20 -6 0 -7 -13 -2 -32 4 -18 7 -39 7
-45 0 -7 5 -13 12 -13 28 0 42 25 37 68 -4 38 -7 42 -25 36 -16 -5 -19 -3 -14
10 4 9 1 16 -4 16 -6 0 -9 -9 -6 -20z m31 -46 c9 -22 8 -24 -9 -24 -8 0 -15 9
-15 20 0 24 15 27 24 4z"/>
<path d="M2785 7100 c-3 -5 -1 -10 4 -10 6 0 11 5 11 10 0 6 -2 10 -4 10 -3 0
-8 -4 -11 -10z"/>
<path d="M5730 7098 c0 -9 5 -20 10 -23 13 -8 13 5 0 25 -8 13 -10 13 -10 -2z"/>
<path d="M5770 7011 c0 -16 12 -41 20 -41 4 0 5 11 2 25 -4 23 -22 36 -22 16z"/>
<path d="M5236 6995 c-35 -81 -46 -110 -46 -124 0 -9 -4 -21 -8 -26 -15 -17
-65 -145 -59 -151 21 -21 101 72 117 137 13 52 10 195 -4 164z"/>
<path d="M2945 6990 c-3 -5 1 -10 10 -10 9 0 13 5 10 10 -3 6 -8 10 -10 10 -2
0 -7 -4 -10 -10z"/>
<path d="M2883 6976 c-28 -13 -29 -22 -4 -29 13 -3 22 3 30 19 11 26 8 27 -26
10z"/>
<path d="M5583 6940 c-7 -30 -11 -55 -9 -57 7 -8 27 66 24 88 -2 14 -8 2 -15
-31z"/>
<path d="M5311 6962 c-1 -28 23 -25 27 4 2 14 1 16 -6 5 -8 -11 -10 -11 -15 0
-3 8 -6 4 -6 -9z"/>
<path d="M2920 6961 c0 -6 4 -12 8 -15 5 -3 9 1 9 9 0 8 -4 15 -9 15 -4 0 -8
-4 -8 -9z"/>
<path d="M2850 6903 c0 -28 4 -28 30 -6 26 23 25 28 -5 28 -19 0 -25 -5 -25
-22z"/>
<path d="M5346 6905 c-9 -14 -13 -25 -8 -25 5 0 14 11 20 25 6 14 10 25 8 25
-2 0 -11 -11 -20 -25z"/>
<path d="M2670 6822 c0 -23 5 -42 10 -42 7 0 8 14 4 38 -9 51 -14 53 -14 4z"/>
<path d="M2840 6799 c0 -5 5 -7 10 -4 6 3 10 8 10 11 0 2 -4 4 -10 4 -5 0 -10
-5 -10 -11z"/>
<path d="M5500 6715 c-7 -9 -11 -18 -8 -20 3 -3 11 1 18 10 7 9 11 18 8 20 -3
3 -11 -1 -18 -10z"/>
<path d="M2705 6690 c-3 -5 -1 -10 4 -10 6 0 11 5 11 10 0 6 -2 10 -4 10 -3 0
-8 -4 -11 -10z"/>
<path d="M5150 6653 c0 -4 5 -15 10 -23 8 -13 10 -13 10 2 0 9 -4 20 -10 23
-5 3 -10 3 -10 -2z"/>
<path d="M5810 6644 c0 -8 5 -12 10 -9 6 4 8 11 5 16 -9 14 -15 11 -15 -7z"/>
<path d="M5125 6620 c-7 -12 2 -30 16 -30 5 0 9 9 9 20 0 21 -15 27 -25 10z"/>
<path d="M6390 6616 c0 -9 5 -16 10 -16 6 0 10 4 10 9 0 6 -4 13 -10 16 -5 3
-10 -1 -10 -9z"/>
<path d="M5791 6578 c-5 -13 -12 -39 -16 -58 l-7 -35 22 23 c12 13 23 38 25
57 3 39 -11 47 -24 13z"/>
<path d="M6314 6548 c-17 -27 -11 -60 17 -91 19 -21 29 -26 29 -16 0 9 -9 24
-20 34 -11 10 -20 27 -20 37 0 16 3 17 20 8 23 -12 25 -3 6 23 -15 20 -22 21
-32 5z"/>
<path d="M6380 6470 c0 -5 5 -10 11 -10 5 0 7 5 4 10 -3 6 -8 10 -11 10 -2 0
-4 -4 -4 -10z"/>
<path d="M6460 6323 c0 -12 5 -25 10 -28 13 -8 13 15 0 35 -8 12 -10 11 -10
-7z"/>
<path d="M1648 898 c7 -7 12 -25 12 -41 0 -27 -2 -29 -30 -24 -22 5 -28 3 -24
-7 3 -8 -3 -20 -13 -27 -28 -20 -35 -48 -19 -71 14 -19 14 -19 20 -1 4 12 15
19 28 19 17 -1 24 7 33 37 6 21 16 41 23 46 6 4 11 24 10 44 -1 33 -4 37 -27
37 -19 0 -22 -3 -13 -12z"/>
<path d="M1550 700 c0 -6 -4 -9 -9 -6 -5 3 -14 -1 -21 -9 -7 -8 -21 -15 -32
-15 -28 0 -32 -23 -10 -64 18 -34 21 -36 34 -20 7 9 32 37 56 60 46 48 48 50
30 51 -7 0 -21 4 -30 8 -11 4 -18 3 -18 -5z"/>
<path d="M1460 540 c0 -5 5 -10 10 -10 6 0 10 5 10 10 0 6 -4 10 -10 10 -5 0
-10 -4 -10 -10z"/>
<path d="M1430 521 c0 -5 7 -17 15 -25 14 -13 14 -18 2 -38 -19 -31 -29 -75
-18 -82 5 -3 11 8 15 24 3 17 12 30 20 30 20 0 31 21 16 30 -7 4 -9 13 -6 19
4 6 11 9 16 6 5 -3 8 4 7 15 -1 23 -8 25 -25 8 -9 -9 -13 -7 -18 5 -7 18 -24
23 -24 8z"/>
<path d="M1420 330 c0 -5 5 -10 10 -10 6 0 10 5 10 10 0 6 -4 10 -10 10 -5 0
-10 -4 -10 -10z"/>
<path d="M667 296 c-9 -7 -17 -23 -17 -34 0 -26 -17 -37 -35 -22 -9 7 -15 8
-20 1 -3 -6 6 -13 20 -17 23 -6 24 -8 12 -23 -20 -24 -37 -69 -37 -96 0 -21
-5 -25 -32 -26 -22 -1 -26 -3 -13 -6 28 -7 37 -26 19 -40 -25 -18 -7 -33 39
-33 36 0 44 4 55 27 6 15 12 38 12 51 0 14 9 55 19 91 30 103 21 157 -22 127z"/>
</g>
</svg>
