<svg width="20" height="20" viewBox="0 0 20 20" fill="none" xmlns="http://www.w3.org/2000/svg">
<path d="M11.4285 18.5716C11.4285 19.3606 12.0681 20.0002 12.8571 20.0002C13.6461 20.0002 14.2856 19.3606 14.2856 18.5716C14.2856 17.7827 13.6461 17.1431 12.8571 17.1431C12.0681 17.1431 11.4285 17.7827 11.4285 18.5716Z" fill="url(#paint0_radial_3231_16141)"/>
<path d="M5.71415 18.5716C5.71415 19.3606 6.35374 20.0002 7.14272 20.0002C7.9317 20.0002 8.57129 19.3606 8.57129 18.5716C8.57129 17.7827 7.9317 17.1431 7.14272 17.1431C6.35374 17.1431 5.71415 17.7827 5.71415 18.5716Z" fill="url(#paint1_radial_3231_16141)"/>
<path d="M18.5714 14.2859C17.7825 14.2859 17.1429 13.6463 17.1429 12.8573C17.1429 12.0683 17.7825 11.4287 18.5714 11.4287C19.3604 11.4287 20 12.0683 20 12.8573C20 13.6463 19.3604 14.2859 18.5714 14.2859Z" fill="url(#paint2_radial_3231_16141)"/>
<path d="M17.1429 7.14293C17.1429 7.93191 17.7825 8.5715 18.5714 8.5715C19.3604 8.5715 20 7.93191 20 7.14293C20 6.35395 19.3604 5.71436 18.5714 5.71436C17.7825 5.71436 17.1429 6.35395 17.1429 7.14293Z" fill="url(#paint3_radial_3231_16141)"/>
<path d="M12.8572 14.7617C11.8052 14.7617 10.9524 13.9089 10.9524 12.8569C10.9524 11.8049 11.8052 10.9521 12.8572 10.9521C13.9092 10.9521 14.762 11.8049 14.762 12.8569C14.762 13.9089 13.9092 14.7617 12.8572 14.7617Z" fill="url(#paint4_radial_3231_16141)"/>
<path d="M5.23808 12.8569C5.23808 13.9089 6.09088 14.7617 7.14285 14.7617C8.19482 14.7617 9.04761 13.9089 9.04761 12.8569C9.04761 11.8049 8.19482 10.9521 7.14285 10.9521C6.09088 10.9521 5.23808 11.8049 5.23808 12.8569Z" fill="url(#paint5_radial_3231_16141)"/>
<path d="M12.8572 9.04781C11.8052 9.04781 10.9524 8.19501 10.9524 7.14304C10.9524 6.09107 11.8052 5.23828 12.8572 5.23828C13.9092 5.23828 14.762 6.09107 14.762 7.14304C14.762 8.19501 13.9092 9.04781 12.8572 9.04781Z" fill="url(#paint6_radial_3231_16141)"/>
<path d="M7.14285 9.04781C6.09088 9.04781 5.23808 8.19501 5.23808 7.14304C5.23808 6.09107 6.09088 5.23828 7.14285 5.23828C8.19482 5.23828 9.04761 6.09107 9.04761 7.14304C9.04761 8.19501 8.19482 9.04781 7.14285 9.04781Z" fill="url(#paint7_radial_3231_16141)"/>
<path d="M1.42861 14.2859C0.639628 14.2859 3.42742e-05 13.6463 3.42949e-05 12.8573C3.43155e-05 12.0683 0.639628 11.4287 1.42861 11.4287C2.21758 11.4287 2.85718 12.0683 2.85718 12.8573C2.85718 13.6463 2.21758 14.2859 1.42861 14.2859Z" fill="url(#paint8_radial_3231_16141)"/>
<path d="M3.42949e-05 7.14293C3.42742e-05 7.93191 0.639628 8.5715 1.42861 8.5715C2.21758 8.5715 2.85718 7.93191 2.85718 7.14293C2.85718 6.35395 2.21758 5.71436 1.42861 5.71436C0.639628 5.71436 3.43155e-05 6.35395 3.42949e-05 7.14293Z" fill="url(#paint9_radial_3231_16141)"/>
<path d="M12.8571 2.85714C12.0681 2.85714 11.4285 2.21755 11.4285 1.42857C11.4285 0.639593 12.0681 -1.61747e-07 12.8571 -1.04199e-07C13.6461 -4.66515e-08 14.2856 0.639593 14.2856 1.42857C14.2856 2.21755 13.6461 2.85714 12.8571 2.85714Z" fill="url(#paint10_radial_3231_16141)"/>
<path d="M7.14272 2.85714C6.35374 2.85714 5.71415 2.21755 5.71415 1.42857C5.71415 0.639593 6.35374 -1.61747e-07 7.14272 -1.04199e-07C7.9317 -4.66515e-08 8.57129 0.639593 8.57129 1.42857C8.57129 2.21755 7.9317 2.85714 7.14272 2.85714Z" fill="url(#paint11_radial_3231_16141)"/>
<defs>
<radialGradient id="paint0_radial_3231_16141" cx="0" cy="0" r="1" gradientUnits="userSpaceOnUse" gradientTransform="translate(12.2144 17.6431) rotate(56.3099) scale(1.80278)">
<stop stop-color="#E5E5E5"/>
<stop offset="1" stop-color="#1F1E1D"/>
</radialGradient>
<radialGradient id="paint1_radial_3231_16141" cx="0" cy="0" r="1" gradientUnits="userSpaceOnUse" gradientTransform="translate(6.5 17.6431) rotate(56.3099) scale(1.80278)">
<stop stop-color="#E5E5E5"/>
<stop offset="1" stop-color="#1F1E1D"/>
</radialGradient>
<radialGradient id="paint2_radial_3231_16141" cx="0" cy="0" r="1" gradientUnits="userSpaceOnUse" gradientTransform="translate(17.9287 11.9287) rotate(56.3099) scale(1.80278)">
<stop stop-color="#E5E5E5"/>
<stop offset="1" stop-color="#1F1E1D"/>
</radialGradient>
<radialGradient id="paint3_radial_3231_16141" cx="0" cy="0" r="1" gradientUnits="userSpaceOnUse" gradientTransform="translate(17.9287 6.21436) rotate(56.3099) scale(1.80278)">
<stop stop-color="#E5E5E5"/>
<stop offset="1" stop-color="#1F1E1D"/>
</radialGradient>
<radialGradient id="paint4_radial_3231_16141" cx="0" cy="0" r="1" gradientUnits="userSpaceOnUse" gradientTransform="translate(12.0002 11.6188) rotate(56.3099) scale(2.4037)">
<stop stop-color="#E5E5E5"/>
<stop offset="1" stop-color="#1F1E1D"/>
</radialGradient>
<radialGradient id="paint5_radial_3231_16141" cx="0" cy="0" r="1" gradientUnits="userSpaceOnUse" gradientTransform="translate(6.28589 11.6188) rotate(56.3099) scale(2.4037)">
<stop stop-color="#E5E5E5"/>
<stop offset="1" stop-color="#1F1E1D"/>
</radialGradient>
<radialGradient id="paint6_radial_3231_16141" cx="0" cy="0" r="1" gradientUnits="userSpaceOnUse" gradientTransform="translate(12.0002 5.90495) rotate(56.3099) scale(2.4037)">
<stop stop-color="#E5E5E5"/>
<stop offset="1" stop-color="#1F1E1D"/>
</radialGradient>
<radialGradient id="paint7_radial_3231_16141" cx="0" cy="0" r="1" gradientUnits="userSpaceOnUse" gradientTransform="translate(6.28589 5.90495) rotate(56.3099) scale(2.4037)">
<stop stop-color="#E5E5E5"/>
<stop offset="1" stop-color="#1F1E1D"/>
</radialGradient>
<radialGradient id="paint8_radial_3231_16141" cx="0" cy="0" r="1" gradientUnits="userSpaceOnUse" gradientTransform="translate(0.785888 11.9287) rotate(56.3099) scale(1.80278)">
<stop stop-color="#E5E5E5"/>
<stop offset="1" stop-color="#1F1E1D"/>
</radialGradient>
<radialGradient id="paint9_radial_3231_16141" cx="0" cy="0" r="1" gradientUnits="userSpaceOnUse" gradientTransform="translate(0.785888 6.21436) rotate(56.3099) scale(1.80278)">
<stop stop-color="#E5E5E5"/>
<stop offset="1" stop-color="#1F1E1D"/>
</radialGradient>
<radialGradient id="paint10_radial_3231_16141" cx="0" cy="0" r="1" gradientUnits="userSpaceOnUse" gradientTransform="translate(12.2144 0.5) rotate(56.3099) scale(1.80278)">
<stop stop-color="#E5E5E5"/>
<stop offset="1" stop-color="#1F1E1D"/>
</radialGradient>
<radialGradient id="paint11_radial_3231_16141" cx="0" cy="0" r="1" gradientUnits="userSpaceOnUse" gradientTransform="translate(6.5 0.5) rotate(56.3099) scale(1.80278)">
<stop stop-color="#E5E5E5"/>
<stop offset="1" stop-color="#1F1E1D"/>
</radialGradient>
</defs>
</svg>
